<svg xmlns="http://www.w3.org/2000/svg" width="1024" height="190" fill="none"><path fill="#E30724" d="m910.222 113.961-37.926-37.987-4.74 4.749-4.741 4.748-9.482 9.497-18.963 18.993v37.987l37.926 37.987v-56.98l18.963-18.994h18.963ZM853.333 37.987 815.407 0h113.778l56.889 56.98-37.926 37.988 56.892 56.98-.08 37.913.08.074-75.855-75.974-37.926-37.987h18.963l18.963-18.993-18.963-18.994h-56.889ZM303.407 189.935h56.889l-56.889-56.98-18.963-18.994h-18.963l-37.925 37.987h37.925l37.926 37.987ZM170.667 189.935h-56.889l75.852-75.974h56.863l-37.9 37.987-37.926 37.987ZM170.667 0h-56.889l56.889 56.98 18.963 18.994h18.963l37.926-37.987h-37.926L170.667 0ZM303.407 0h56.889l-75.852 75.974h-56.863l37.9-37.987L303.407 0ZM0 132.955v18.993l37.925 37.987 14.22.001 23.706-.001 37.926-37.987-56.89.001-18.961-.001L0 113.961v18.994Z"/><path fill="#E30724" d="m0 37.987 37.926 37.987h113.776l18.963 18.994-18.963 18.993H37.926v18.994L0 94.968V37.987Z"/><path fill="#E30724" d="M56.889 37.987h56.893L75.856 0H18.963L0 18.994l9.481 9.496 9.482 9.497 18.963 18.994V37.987h18.963Z"/><path stroke="#E30724" d="M0 132.955v18.993l37.925 37.987 14.22.001 23.706-.001 37.926-37.987-56.89.001-18.961-.001L0 113.961v18.994Z"/><path stroke="#E30724" d="m0 37.987 37.926 37.987h113.776l18.963 18.994-18.963 18.993H37.926v18.994L0 94.968V37.987Z"/><path stroke="#E30724" d="M56.889 37.987h56.893L75.856 0H18.963L0 18.994l9.481 9.496 9.482 9.497 18.963 18.994V37.987h18.963Z"/><path fill="#E30724" d="M398.222 0 322.37 75.974v37.987l37.926 37.986v-37.986h18.963l37.926-37.987h-37.926l37.926-37.988 18.963 18.994 18.963 18.994h-18.963l-37.926 37.987h75.852v75.973L512 151.947V75.974L436.148 0h-37.926ZM701.33 113.961H796.445l37.925-37.987H682.667l-18.963 18.994 9.182 9.497 28.444 28.49v-18.994Z"/><path fill="#E30724" d="M682.667 151.948H796.444l37.926 37.987H682.667l-18.963-18.993-18.963-18.994v-37.987l37.926 37.987ZM758.519 0 701.63 56.98l-4.741 4.749h37.626l24.004-23.742h56.888L777.481 0h-18.962Z"/><path stroke="#E30724" d="M701.33 113.961H796.445l37.925-37.987H682.667l-18.963 18.994 9.182 9.497 28.444 28.49v-18.994Z"/><path stroke="#E30724" d="M682.667 151.948H796.444l37.926 37.987H682.667l-18.963-18.993-18.963-18.994v-37.987l37.926 37.987ZM758.519 0 701.63 56.98l-4.741 4.749h37.626l24.004-23.742h56.888L777.481 0h-18.962Z"/><path fill="#E30724" d="M530.963 0h-56.889l56.889 56.98 18.963 18.994h18.963l37.926-37.987h-37.926L530.963 0ZM673.185 0h47.408L606.815 113.961v75.974h-47.408v-75.974L673.185 0Z"/></svg>